HIERARCHY
ROOT hip
{
  OFFSET 0 0 0
  CHANNELS 6 Xposition Yposition Zposition Zrotation Yrotation Xrotation
  JOINT abdomen
  {
    OFFSET 0 20.6881 -0.73152
    CHANNELS 3 Zrotation Xrotation Yrotation
    JOINT chest
    {
      OFFSET 0 11.7043 -0.48768
      CHANNELS 3 Zrotation Xrotation Yrotation
      JOINT neck
      {
        OFFSET 0 22.1894 -2.19456
        CHANNELS 3 Zrotation Xrotation Yrotation
        JOINT head
        {
          OFFSET -0.24384 7.07133 1.2192
          CHANNELS 3 Zrotation Xrotation Yrotation
          JOINT leftEye
          {
            OFFSET 4.14528 8.04674 8.04672
            CHANNELS 3 Zrotation Xrotation Yrotation
            End Site
            {
              OFFSET 1 0 0
            }
          }
          JOINT rightEye
          {
            OFFSET -3.6576 8.04674 8.04672
            CHANNELS 3 Zrotation Xrotation Yrotation
            End Site
            {
              OFFSET 1 0 0
            }
          }
        }
      }
      JOINT rCollar
      {
        OFFSET -2.68224 19.2634 -4.8768
        CHANNELS 3 Zrotation Xrotation Yrotation
        JOINT rShldr
        {
          OFFSET -8.77824 -1.95073 1.46304
          CHANNELS 3 Zrotation Xrotation Yrotation
          JOINT rForeArm
          {
            OFFSET -28.1742 -1.7115 0.48768
            CHANNELS 3 Zrotation Xrotation Yrotation
            JOINT rHand
            {
              OFFSET -22.5879 0.773209 7.07136
              CHANNELS 3 Zrotation Xrotation Yrotation
              JOINT rThumb1
              {
                OFFSET -1.2192 -0.487915 3.41376
                CHANNELS 3 Zrotation Xrotation Yrotation
                JOINT rThumb2
                {
                  OFFSET -3.37035 -0.52449 3.41376
                  CHANNELS 3 Zrotation Xrotation Yrotation
                  End Site
                  {
                    OFFSET -1.78271 -1.18214 1.43049
                  }
                }
              }
              JOINT rIndex1
              {
                OFFSET -7.75947 0.938293 5.60832
                CHANNELS 3 Zrotation Xrotation Yrotation
                JOINT rIndex2
                {
                  OFFSET -2.54057 -0.884171 1.56538
                  CHANNELS 3 Zrotation Xrotation Yrotation
                  End Site
                  {
                    OFFSET -1.62519 -0.234802 1.16502
                  }
                }
              }
              JOINT rMid1
              {
                OFFSET -8.24714 1.18213 3.41376
                CHANNELS 3 Zrotation Xrotation Yrotation
                JOINT rMid2
                {
                  OFFSET -3.10165 -0.590103 1.0647
                  CHANNELS 3 Zrotation Xrotation Yrotation
                  End Site
                  {
                    OFFSET -2.48547 -0.328903 0.83742
                  }
                }
              }
              JOINT rRing1
              {
                OFFSET -8.82822 0.546677 1.51678
                CHANNELS 3 Zrotation Xrotation Yrotation
                JOINT rRing2
                {
                  OFFSET -2.60934 -0.819778 -0.0198488
                  CHANNELS 3 Zrotation Xrotation Yrotation
                  End Site
                  {
                    OFFSET -2.33842 -0.294052 0.168128
                  }
                }
              }
              JOINT rPinky1
              {
                OFFSET -8.27202 -0.0477905 -0.4584
                CHANNELS 3 Zrotation Xrotation Yrotation
                JOINT rPinky2
                {
                  OFFSET -1.82734 -0.647385 -0.700984
                  CHANNELS 3 Zrotation Xrotation Yrotation
                  End Site
                  {
                    OFFSET -1.69225 -0.51767 -0.607171
                  }
                }
              }
            }
          }
        }
      }
      JOINT lCollar
      {
        OFFSET 2.68224 19.2634 -4.8768
        CHANNELS 3 Zrotation Xrotation Yrotation
        JOINT lShldr
        {
          OFFSET 8.77824 -1.95073 1.46304
          CHANNELS 3 Zrotation Xrotation Yrotation
          JOINT lForeArm
          {
            OFFSET 28.1742 -1.7115 0.48768
            CHANNELS 3 Zrotation Xrotation Yrotation
            JOINT lHand
            {
              OFFSET 22.5879 0.773209 7.07136
              CHANNELS 3 Zrotation Xrotation Yrotation
              JOINT lThumb1
              {
                OFFSET 1.2192 -0.487915 3.41376
                CHANNELS 3 Zrotation Xrotation Yrotation
                JOINT lThumb2
                {
                  OFFSET 3.37035 -0.52449 3.41376
                  CHANNELS 3 Zrotation Xrotation Yrotation
                  End Site
                  {
                    OFFSET 1.78271 -1.18214 1.43049
                  }
                }
              }
              JOINT lIndex1
              {
                OFFSET 7.75947 0.938293 5.60832
                CHANNELS 3 Zrotation Xrotation Yrotation
                JOINT lIndex2
                {
                  OFFSET 2.54057 -0.884171 1.56538
                  CHANNELS 3 Zrotation Xrotation Yrotation
                  End Site
                  {
                    OFFSET 1.62519 -0.234802 1.16502
                  }
                }
              }
              JOINT lMid1
              {
                OFFSET 8.24714 1.18213 3.41376
                CHANNELS 3 Zrotation Xrotation Yrotation
                JOINT lMid2
                {
                  OFFSET 3.10165 -0.590103 1.0647
                  CHANNELS 3 Zrotation Xrotation Yrotation
                  End Site
                  {
                    OFFSET 2.48547 -0.328903 0.83742
                  }
                }
              }
              JOINT lRing1
              {
                OFFSET 8.82822 0.546677 1.51678
                CHANNELS 3 Zrotation Xrotation Yrotation
                JOINT lRing2
                {
                  OFFSET 2.60934 -0.819778 -0.0198488
                  CHANNELS 3 Zrotation Xrotation Yrotation
                  End Site
                  {
                    OFFSET 2.33842 -0.294052 0.168128
                  }
                }
              }
              JOINT lPinky1
              {
                OFFSET 8.27202 -0.0477905 -0.4584
                CHANNELS 3 Zrotation Xrotation Yrotation
                JOINT lPinky2
                {
                  OFFSET 1.82734 -0.647385 -0.700984
                  CHANNELS 3 Zrotation Xrotation Yrotation
                  End Site
                  {
                    OFFSET 1.69225 -0.51767 -0.607171
                  }
                }
              }
            }
          }
        }
      }
    }
  }
  JOINT rButtock
  {
    OFFSET -8.77824 4.35084 1.2192
    CHANNELS 3 Zrotation Xrotation Yrotation
    JOINT rThigh
    {
      OFFSET 0 -1.70687 -2.19456
      CHANNELS 3 Zrotation Xrotation Yrotation
      JOINT rShin
      {
        OFFSET 0 -36.8199 0.73152
        CHANNELS 3 Zrotation Xrotation Yrotation
        JOINT rFoot
        {
          OFFSET 0.73152 -45.1104 -5.12064
          CHANNELS 3 Zrotation Xrotation Yrotation
          End Site
          {
            OFFSET -1.1221 -3.69964 12.103
          }
        }
      }
    }
  }
  JOINT lButtock
  {
    OFFSET 8.77824 4.35084 1.2192
    CHANNELS 3 Zrotation Xrotation Yrotation
    JOINT lThigh
    {
      OFFSET 0 -1.70687 -2.19456
      CHANNELS 3 Zrotation Xrotation Yrotation
      JOINT lShin
      {
        OFFSET 0 -36.8199 0.73152
        CHANNELS 3 Zrotation Xrotation Yrotation
        JOINT lFoot
        {
          OFFSET -0.73152 -45.1104 -5.12064
          CHANNELS 3 Zrotation Xrotation Yrotation
          End Site
          {
            OFFSET 1.1221 -3.69964 12.103
          }
        }
      }
    }
  }
}
MOTION
Frames:	6
Frame Time:	0.03333
-10.7136 67.3999 2.7058 -2.45724 17.133356 12.091405 -1.997454 2.13315 -136.863391 26.228214 -2.612745 147.054227 26.921847 0.390541 111.133195 12.364918 -8.970053 -96.071349 3.87337 -1.237274 -35.418824 62.965097 14.036861 22.734045 16.558754 48.215528 -3.447152 -160.885221 -15.238847 159.802833 -20.699897 -26.583861 -145.885667 168.458505 -15.618424 159.133173 -21.093423 5.728997 -42.551691 47.428505 -19.6759 41.536784 -173.794352 64.06374 161.898052 157.218508 19.813495 -112.648316 -106.146056 -30.399993 -137.568206 121.263968 68.526138 -59.388026 -6.186417 72.162258 90.282131 23.310133 -63.55827 -68.740533 -110.404386 38.036357 37.403942 21.315112 0.250946 -159.520414 21.638189 31.644456 -18.633525 158.295945 23.193471 -161.457136 -179.118258 -1.883137 113.613982 -1.382488 -39.58527 12.684412 -132.43718 -50.760358 -36.45643 -111.963939 -67.668325 166.63343 27.770718 45.752859 -7.537177 130.313906 -77.6929 -85.237994 106.695192 80.599477 -92.493618 -136.589354 -37.194529 -27.28458 -157.385908 44.599034 162.31863 -157.407266 -35.958352 -173.026378 -152.515849 -37.10903 -141.128387 52.446541 -39.14704 -93.322102 64.85104 57.323782 51.421237 -121.574707 9.880628 -13.84207 64.666234 21.455773 4.630152 -160.824291 73.997277 68.109468 -82.744893 44.249837 -9.971459 135.458513 -12.28307 -12.896295 -72.44949 -0.712937 -14.456644 -160.783417 62.388761 -116.306597
-10.0475 67.6897 2.8455999999999997 -2.235957 15.368881 11.735222 -4.849146 4.752355 45.678912 -24.767812 -1.931237 -39.953042 4.238558 1.543931 -76.983372 -6.145204 25.219685 92.796438 -1.135052 0.426725 -41.206596 60.60743 17.123972 28.89169 -127.221874 -62.334545 -165.60401 0.65559 26.559914 -1.140649 37.550657 -75.583135 -98.71967 177.46474 20.190026 162.07049 -29.971502 -71.384826 -61.937117 -87.695409 -22.706716 135.461128 -158.066002 27.173703 162.720099 -108.488329 59.153715 -167.824228 -84.158469 -32.00053 -113.168676 -79.69982 4.83844 172.133378 -23.485949 -59.869281 -109.971034 -67.282211 26.208565 30.967659 120.79306 25.708509 -172.354465 14.708294 -11.587922 159.255249 86.21613 65.306174 -81.816842 42.250159 69.539068 -48.930966 -160.289492 -23.808035 121.001506 3.539265 -22.604829 11.405245 147.618684 -18.763434 -84.143521 -94.784073 42.076684 -52.655536 74.428041 -78.087963 119.082313 93.940305 -57.945385 123.027555 9.298796 49.623819 2.723999 67.808784 8.043599 -151.069298 -168.989074 4.022053 141.879482 -156.083883 13.260757 152.831751 5.726758 -19.176115 -73.661754 -166.072345 -35.936052 48.794621 -57.668508 7.505974 -23.830949 66.496203 -31.757679 -180.0 19.32774 -70.141505 93.597672 28.471522 7.786687 87.620763 -92.951912 47.182131 -10.337197 141.15801 -6.181755 -82.383053 -49.670338 -51.559121 111.584576 32.858494 -3.519816 17.228731
-9.5541 65.3121 2.6986 -9.007937 26.058312 14.716054 8.856147 -8.351454 47.010236 -21.130531 8.229646 -40.95585 23.651735 3.167068 105.214193 13.65434 -3.27189 -90.023511 -1.351736 0.693171 -54.29594 31.087717 4.918101 17.553787 9.074324 -26.146833 -8.950547 -148.330212 -15.531408 -179.054373 -144.035419 -20.116975 -70.778879 9.916893 -39.225309 19.946157 174.035705 -0.023343 124.937938 165.265944 -51.497086 129.441351 8.891238 63.489267 -26.318892 -73.244305 -24.815916 -132.623414 18.376349 11.933014 -64.283896 -159.221792 -10.50586 64.330372 -100.167655 -1.111993 -173.132055 -56.752756 19.276094 77.210186 -117.075143 -48.804072 9.616831 -164.634487 -0.077507 32.421148 158.971931 -3.69027 -162.012617 80.593174 84.605393 -91.049546 166.527139 76.889056 121.941856 -1.580284 -38.702618 14.541492 -29.808163 0.336879 -10.355687 111.14865 -13.811185 130.718096 49.958566 50.438635 -19.170649 0.727322 10.605295 -65.427479 -53.516918 -83.635423 -27.367149 57.724876 13.768024 40.133071 173.603388 5.426219 163.002794 93.144897 -64.558791 91.800329 34.908303 -40.790689 -71.504148 150.534674 9.479764 64.531475 160.294499 84.175599 -0.0 -172.188374 27.841467 163.629783 -66.275344 -52.648644 -133.562301 41.607922 66.918438 -158.550754 -143.334951 64.067717 -0.0 178.612599 5.781805 -180.0 75.907663 -48.836402 151.515495 -107.744002 73.102845 -159.189922
-9.5902 64.1604 2.6897 -9.380877 29.077756 14.903757 8.60948 -5.628899 43.242172 -22.67607 6.726738 -38.918439 19.50823 -11.369889 57.517357 27.182341 14.25108 -46.950921 2.835724 -1.295995 -49.116135 36.282344 4.371758 13.289508 -147.423551 -3.354263 171.906799 -9.650677 -12.74439 0.428239 111.795271 -37.01238 -130.616026 -36.507856 47.781003 27.962175 -4.047184 -51.024655 -19.469286 -27.045682 43.336064 13.899139 -13.046588 60.210675 1.489265 97.490955 75.461953 -105.624658 -159.34734 47.182008 -179.290512 158.480179 -8.457399 -170.768459 42.799926 -6.039909 16.062127 119.349777 18.374223 -106.100114 117.402587 56.152093 172.87774 166.766295 -24.627235 44.915573 -5.324299 -44.94603 4.772351 -33.401788 -60.231391 -18.933561 -146.372263 56.267275 84.258939 2.365356 -12.717972 15.895689 -175.133155 -34.275897 -63.104868 69.061781 -61.132032 -37.26268 -11.924268 -48.351263 -0.805474 -163.59613 -81.190538 177.046153 -19.24084 -65.768494 1.132266 41.155392 46.052965 37.556468 177.929971 0.855745 -179.926475 13.582432 6.92592 2.433326 57.854428 -3.513304 -77.46377 -42.256451 -8.490357 60.977704 -134.639529 72.953251 -46.646678 161.366991 22.281611 107.929706 79.887903 -43.115554 109.524467 -151.207956 21.959663 -119.896711 -46.922468 49.890727 -43.633328 126.770082 -8.17112 -180.0 71.625079 -19.791405 -94.203762 31.078364 -7.519156 9.493113
-9.9353 64.2887 2.9975 -7.859839 28.217543 14.264969 4.56569 -0.397353 90.647233 -13.190846 20.827795 -85.703622 21.79592 -11.236197 91.160894 31.098832 -2.695463 -78.691778 5.093364 -1.566111 -34.164102 57.567501 5.331858 9.688988 9.132999 45.309094 -3.566772 8.453156 15.319444 30.332411 110.523569 36.720708 93.501971 -147.013153 45.820438 125.583313 167.594731 1.469248 107.85057 -23.870537 -61.765633 -14.308205 -76.292716 69.933333 68.540139 -1.116505 41.826338 -101.097747 -139.884536 -0.927053 161.79281 9.719621 1.14223 -59.543542 -105.130205 -27.301135 154.03 89.177566 -13.431111 84.509929 171.271407 -68.564188 -80.736329 152.495076 64.542242 109.856989 142.10459 35.568753 -140.282628 -11.683029 -44.372584 -7.432536 -0.095326 -78.043239 -59.507766 -6.737919 -36.366673 14.192351 -149.056952 -45.835447 -47.517197 -56.645391 -36.133017 -88.47905 57.207545 30.00435 -39.422059 -12.891708 -18.424717 105.176207 -2.665398 -30.219106 9.620501 26.84875 28.077842 55.622119 105.400689 -73.810826 78.420697 -0.419202 -11.362819 39.536486 91.571121 19.086126 -109.995773 -70.399412 -31.954807 22.009945 44.783538 20.552398 45.710372 -89.173132 -13.942277 3.685041 73.64521 3.908197 -8.313762 178.10333 25.900277 91.267705 -71.494302 61.211444 -29.9148 142.416627 -0.556465 -1.304334 -79.342601 14.705317 -36.228883 26.873852 10.557231 132.549686
-10.36 64.8615 3.543 -5.922971 25.007954 13.539076 1.198393 4.292982 120.89711 -1.859782 26.110343 -117.647056 5.442368 -6.101855 -117.108074 -33.63693 7.305323 133.035045 3.625029 -0.755319 -23.532456 69.202525 8.275484 11.972572 -133.236915 -40.925809 -169.581138 -172.135362 1.010304 -170.842521 177.068825 21.338752 50.134862 -171.350617 2.628232 142.768335 -177.742912 16.877251 102.760537 -68.687632 7.467085 11.476001 -134.218303 -43.829025 164.809239 136.293456 -8.218859 -46.147046 -137.890823 -46.615294 166.125015 -48.883114 -58.662604 -130.127977 56.252786 11.864406 37.310236 -42.880942 8.810715 -84.938568 133.36384 52.247213 173.1665 115.33911 2.811055 77.573501 87.007931 59.535422 -82.940902 158.531465 27.789921 -161.401653 -13.702575 -50.177915 89.863683 158.934299 39.784978 -118.794655 0.678225 33.287589 -21.629907 62.176378 -30.793319 102.195022 -12.164251 -17.969097 -1.94124 139.582111 -50.782434 113.299329 168.32009 -74.108812 -161.716425 108.018864 33.991886 -25.278262 -165.76537 2.203963 178.485667 27.142544 25.878639 3.047806 -156.653849 -47.672767 -142.481523 48.900091 -13.837945 -84.652744 -4.542022 -7.123177 5.25219 -11.178997 -43.449593 -7.901449 51.240245 52.241104 -72.127461 97.786536 -20.206409 16.46199 11.171847 27.875708 -22.899143 80.550471 -56.555106 -0.0 -70.49343 -8.724943 46.994925 -16.839985 -61.181498 56.81535
